# xmcd
# 
# Track frame offsets:
#     150
#     13317
#     24384
#     34941
#     49368
#     58792
#     69530
#     79825
#     98147
#     112856
#     124934
#     139430
#     151408
#     165328
#     176674
#     189528
# 
# Disc length: 2745
# 
# Revision: 1
# Processed by: cddbd v1.5.2PL0 Copyright (c) Steve Scherf et al.
# Submitted via: fre:ac v1.0.17
# 
DISCID=dd0ab710
DTITLE=Various Artist - Sensacional Soul 2-Cd1
DYEAR=0
DGENRE=
TTITLE0=Los Gatos Negros - Hey Hey Bunny
TTITLE1=Jae's Soul - Sintonia En Soul
TTITLE2=Los Albas - Bugulu
TTITLE3=Conjunto Brillants - Las Bellas Ilusiones
TTITLE4=Karlo Y Su Conjunto -  Abandonado
TTITLE5=Los Gogo - Tu Lo Tienes, Mi Amor
TTITLE6=Chus Martinez - Soul 2
TTITLE7=Ossie Layne - Higher and Higher
TTITLE8=Los Bravos - Rudi's In Love
TTITLE9=Las 4 Monedas - Perdoname
TTITLE10=Los Roberts - El Saltamontes
TTITLE11=Gino - La Vida Es Un Juego De Azar
TTITLE12=La Nueva Banda De Santisteban - Limon Y Sal
TTITLE13=Henry C Martin - Donkey
TTITLE14=Brisks - Stone Free
TTITLE15=Los Roller - Camino Cortado
EXTD=
EXTT0=
EXTT1=
EXTT2=
EXTT3=
EXTT4=
EXTT5=
EXTT6=
EXTT7=
EXTT8=
EXTT9=
EXTT10=
EXTT11=
EXTT12=
EXTT13=
EXTT14=
EXTT15=
PLAYORDER=
